<svg xmlns="http://www.w3.org/2000/svg" viewBox="0 0 64 64">
    <path
        d="M16 32a16 16 0 0 1 31-5.59 1 1 0 1 0 1.88-.7A18 18 0 0 0 14 32v.06a1 1 0 0 0 1 1A1 1 0 0 0 16 32zM32 50A18 18 0 0 0 50 32v-.06a1 1 0 0 0-1-1 1 1 0 0 0-1 1 16 16 0 0 1-31 5.59 1 1 0 1 0-1.88.7A18.07 18.07 0 0 0 32 50z" />
    <path
        d="M32 5a27 27 0 0 1 17 6 1 1 0 0 0 1.26-1.56A29 29 0 0 0 9.44 50.22a1 1 0 0 0 .78.37A1 1 0 0 0 11 49 27 27 0 0 1 32 5zM54.56 13.78A1 1 0 0 0 53 15 27 27 0 0 1 15 53a1 1 0 0 0-1.26 1.56A29 29 0 0 0 54.56 13.78z" />
    <circle cx="32" cy="32" r="7" />
    <path
        d="M52.66 28.23A4 4 0 1 0 48.72 33a4.37 4.37 0 0 0 .72-.06 4 4 0 0 0 3.22-4.66zM55.94 11.28a4 4 0 0 0-1.66-2.57 4 4 0 0 0-3-.65 4 4 0 0 0-2.57 1.66 4 4 0 0 0-.65 3 4 4 0 0 0 1.66 2.57A4 4 0 0 0 52 16a4.49 4.49 0 0 0 .73-.06 4 4 0 0 0 2.57-1.66A4 4 0 0 0 55.94 11.28zM14.28 48.71a3.94 3.94 0 0 0-3-.64 4 4 0 0 0-3.22 4.65 4 4 0 0 0 1.66 2.57A4 4 0 0 0 12 56a3.61 3.61 0 0 0 .73-.07 4 4 0 0 0 3.22-4.65A4 4 0 0 0 14.28 48.71zM17.55 31.76a4 4 0 0 0-3-.65 4 4 0 0 0 .71 7.94A3.51 3.51 0 0 0 16 39a4 4 0 0 0 3.22-4.65A4 4 0 0 0 17.55 31.76z" />
    <path
        d="M32 39a7 7 0 1 1 7-7A7 7 0 0 1 32 39zm0-12a5 5 0 1 0 5 5A5 5 0 0 0 32 27zM48.72 33a4 4 0 1 1 3.94-4.72h0a4 4 0 0 1-3.22 4.66A4.37 4.37 0 0 1 48.72 33zm0-6l-.35 0a2 2 0 0 0-.78 3.62 2 2 0 0 0 1.49.32 2 2 0 0 0 1.61-2.33h0A2 2 0 0 0 48.72 27zM52 16a4 4 0 0 1-2.27-.71 4 4 0 0 1-1.66-2.57 4 4 0 0 1 .65-3 4 4 0 0 1 2.57-1.66 4 4 0 0 1 3 .65 4 4 0 0 1 1.66 2.57 4 4 0 0 1-.65 3 4 4 0 0 1-2.57 1.66A4.49 4.49 0 0 1 52 16zm0-6l-.36 0A2 2 0 1 0 54 11.64h0a2 2 0 0 0-.83-1.29A2 2 0 0 0 52 10zM12 56a4 4 0 0 1-2.27-.71 4 4 0 0 1-1.66-2.57 4 4 0 0 1 3.22-4.65 3.94 3.94 0 0 1 3 .64 4 4 0 0 1 1.66 2.57 4 4 0 0 1-3.22 4.65A3.61 3.61 0 0 1 12 56zm0-6a2.19 2.19 0 0 0-.36 0A2 2 0 1 0 14 51.64h0a2 2 0 0 0-.83-1.29A2 2 0 0 0 12 50zM15.27 39.05A4.09 4.09 0 1 1 16 39 3.51 3.51 0 0 1 15.27 39.05zm0-6l-.36 0a2 2 0 1 0 2.32 1.61h0a2 2 0 0 0-2-1.64z" />
    <path
        d="M15 33a1 1 0 0 1-1-1V32a18 18 0 0 1 34.87-6.29 1 1 0 1 1-1.88.7A16 16 0 0 0 16 32 1 1 0 0 1 15 33zM32 50A18.07 18.07 0 0 1 15.13 38.29a1 1 0 1 1 1.88-.7A16 16 0 0 0 48 32a1 1 0 0 1 1-1 1 1 0 0 1 1 1V32A18 18 0 0 1 32 50z" />
    <path
        d="M10.22 50.59a1 1 0 0 1-.78-.37A29 29 0 0 1 50.22 9.44 1 1 0 0 1 49 11 27 27 0 0 0 11 49a1 1 0 0 1-.78 1.63zM32 61a29.1 29.1 0 0 1-18.22-6.44A1 1 0 0 1 15 53 27 27 0 0 0 53 15a1 1 0 0 1 1.56-1.26A29 29 0 0 1 32 61z" />
</svg>